<svg width="112" height="48" viewBox="0 0 112 48" fill="none" xmlns="http://www.w3.org/2000/svg">
<mask id="path-1-outside-1_53_50" maskUnits="userSpaceOnUse" x="47" y="14" width="65" height="32" fill="black">
<rect fill="white" x="47" y="14" width="65" height="32"/>
<path d="M59.504 35.964C59.504 36.132 58.412 36.216 56.228 36.216C54.044 36.168 52.952 36.072 52.952 35.928V23.976H51.98C51.596 23.976 51.284 23.748 51.044 23.292C50.828 22.812 50.72 22.224 50.72 21.528C50.72 18.936 51.488 17.64 53.024 17.64C54.104 17.64 55.004 17.976 55.724 18.648C56.444 19.296 56.804 20.04 56.804 20.88C57.308 19.896 57.98 19.116 58.82 18.54C59.684 17.94 60.56 17.64 61.448 17.64C62.84 17.64 63.68 18 63.968 18.72C64.04 18.912 64.076 19.2 64.076 19.584C64.076 19.944 63.956 20.604 63.716 21.564C63.5 22.524 63.272 23.22 63.032 23.652C62.792 24.084 62.648 24.3 62.6 24.3C62.552 24.3 62.324 24.216 61.916 24.048C61.532 23.856 61.184 23.76 60.872 23.76C59.96 23.76 59.504 24.48 59.504 25.92V35.964ZM79.1774 35.964C79.1774 36.132 78.0854 36.216 75.9014 36.216C73.7174 36.168 72.6254 36.072 72.6254 35.928V23.976H71.6534C71.2694 23.976 70.9574 23.748 70.7174 23.292C70.5014 22.812 70.3934 22.224 70.3934 21.528C70.3934 18.936 71.1614 17.64 72.6974 17.64C73.7774 17.64 74.6774 17.976 75.3974 18.648C76.1174 19.296 76.4774 20.04 76.4774 20.88C76.9814 19.896 77.6534 19.116 78.4934 18.54C79.3574 17.94 80.2334 17.64 81.1214 17.64C82.5134 17.64 83.3534 18 83.6414 18.72C83.7134 18.912 83.7494 19.2 83.7494 19.584C83.7494 19.944 83.6294 20.604 83.3894 21.564C83.1734 22.524 82.9454 23.22 82.7054 23.652C82.4654 24.084 82.3214 24.3 82.2734 24.3C82.2254 24.3 81.9974 24.216 81.5894 24.048C81.2054 23.856 80.8574 23.76 80.5454 23.76C79.6334 23.76 79.1774 24.48 79.1774 25.92V35.964ZM89.7069 18.18C89.7069 17.916 90.7989 17.784 92.9829 17.784C95.1909 17.784 96.3309 17.904 96.4029 18.144L98.9949 26.64L101.479 18.072C101.575 17.88 102.319 17.784 103.711 17.784C106.903 17.784 108.427 17.94 108.283 18.252L99.8229 42.336C99.7989 42.48 99.1389 42.552 97.8429 42.552C96.5709 42.552 95.3829 42.504 94.2789 42.408C93.1749 42.336 92.6469 42.24 92.6949 42.12L95.8269 34.56L89.7069 18.18Z"/>
</mask>
<path d="M56.228 36.216L56.1621 39.2153L56.195 39.216H56.228V36.216ZM52.952 23.976H55.952V20.976H52.952V23.976ZM51.044 23.292L48.3082 24.5231L48.3462 24.6074L48.3892 24.6892L51.044 23.292ZM55.724 18.648L53.677 20.8412L53.6969 20.8597L53.7171 20.8779L55.724 18.648ZM56.804 20.88H53.804L59.4741 22.2476L56.804 20.88ZM58.82 18.54L60.5166 21.0142L60.5239 21.0092L60.5312 21.0041L58.82 18.54ZM63.968 18.72L66.777 17.6666L66.7655 17.6361L66.7534 17.6058L63.968 18.72ZM63.716 21.564L60.8056 20.8364L60.797 20.8708L60.7892 20.9055L63.716 21.564ZM61.916 24.048L60.5744 26.7313L60.6724 26.7803L60.7738 26.822L61.916 24.048ZM59.504 35.964H56.504C56.504 35.091 56.8779 34.4293 57.2241 34.0297C57.5402 33.6651 57.8686 33.4689 58.0305 33.3816C58.3494 33.2099 58.6059 33.1554 58.6247 33.1511C58.714 33.1305 58.691 33.1437 58.4549 33.1618C58.0279 33.1947 57.3027 33.216 56.228 33.216V36.216V39.216C57.3373 39.216 58.2501 39.1953 58.9151 39.1442C59.225 39.1203 59.6115 39.081 59.9738 38.9974C60.1291 38.9616 60.4879 38.873 60.8751 38.6645C61.0584 38.5658 62.504 37.7829 62.504 35.964H59.504ZM56.228 36.216L56.2939 33.2167C55.2168 33.1931 54.478 33.1586 54.0337 33.1195C53.7919 33.0983 53.743 33.0842 53.8007 33.0969C53.8039 33.0976 54.0247 33.1414 54.3091 33.2789C54.4465 33.3453 54.7704 33.5139 55.0977 33.8447C55.4461 34.197 55.952 34.9036 55.952 35.928H52.952H49.952C49.952 36.9704 50.4664 37.6946 50.8319 38.0641C51.1763 38.4123 51.5258 38.5977 51.6973 38.6806C52.05 38.8511 52.3731 38.9264 52.5128 38.9571C52.8435 39.0298 53.2041 39.0697 53.5083 39.0965C54.156 39.1534 55.0552 39.1909 56.1621 39.2153L56.228 36.216ZM52.952 35.928H55.952V23.976H52.952H49.952V35.928H52.952ZM52.952 23.976V20.976H51.98V23.976V26.976H52.952V23.976ZM51.98 23.976V20.976C52.4287 20.976 52.8738 21.1239 53.228 21.3828C53.543 21.613 53.6736 21.847 53.6988 21.8948L51.044 23.292L48.3892 24.6892C48.943 25.7414 50.1018 26.976 51.98 26.976V23.976ZM51.044 23.292L53.7798 22.0609C53.7845 22.0713 53.72 21.9298 53.72 21.528H50.72H47.72C47.72 22.5182 47.8715 23.5527 48.3082 24.5231L51.044 23.292ZM50.72 21.528H53.72C53.72 21.0192 53.7584 20.6548 53.8071 20.4084C53.8567 20.1573 53.9037 20.0962 53.8769 20.1414C53.8386 20.206 53.7187 20.3673 53.4868 20.4977C53.2576 20.6266 53.071 20.64 53.024 20.64V17.64V14.64C51.222 14.64 49.6522 15.5012 48.7151 17.0826C47.9239 18.4177 47.72 20.0338 47.72 21.528H50.72ZM53.024 17.64V20.64C53.424 20.64 53.5683 20.7397 53.677 20.8412L55.724 18.648L57.771 16.4548C56.4397 15.2123 54.784 14.64 53.024 14.64V17.64ZM55.724 18.648L53.7171 20.8779C53.7776 20.9323 53.8107 20.9709 53.8262 20.991C53.8413 21.0104 53.8405 21.0131 53.8335 20.9987C53.8262 20.9836 53.8174 20.9605 53.8111 20.9329C53.8049 20.9054 53.804 20.886 53.804 20.88H56.804H59.804C59.804 19.0558 58.9763 17.539 57.7309 16.4181L55.724 18.648ZM56.804 20.88L59.4741 22.2476C59.7706 21.6688 60.1227 21.2843 60.5166 21.0142L58.82 18.54L57.1234 16.0658C55.8373 16.9477 54.8454 18.1232 54.1339 19.5124L56.804 20.88ZM58.82 18.54L60.5312 21.0041C60.9877 20.6871 61.2779 20.64 61.448 20.64V17.64V14.64C59.8421 14.64 58.3803 15.1929 57.1088 16.0759L58.82 18.54ZM61.448 17.64V20.64C61.6711 20.64 61.821 20.6547 61.9108 20.6692C62.0023 20.684 62.0014 20.6937 61.9402 20.6674C61.8749 20.6394 61.7328 20.5667 61.5738 20.4144C61.4077 20.2554 61.2708 20.0546 61.1826 19.8342L63.968 18.72L66.7534 17.6058C65.7184 15.0182 63.0245 14.64 61.448 14.64V17.64ZM63.968 18.72L61.159 19.7734C61.1203 19.6702 61.0994 19.5891 61.0884 19.5405C61.0773 19.4909 61.0731 19.4598 61.0722 19.4521C61.0707 19.4406 61.076 19.4793 61.076 19.584H64.076H67.076C67.076 19.0978 67.0419 18.373 66.777 17.6666L63.968 18.72ZM64.076 19.584H61.076C61.076 19.4913 61.0847 19.5358 61.0344 19.8123C60.9901 20.056 60.9164 20.393 60.8056 20.8364L63.716 21.564L66.6264 22.2916C66.8568 21.3701 67.076 20.3665 67.076 19.584H64.076ZM63.716 21.564L60.7892 20.9055C60.6955 21.3218 60.6083 21.6393 60.5321 21.8721C60.452 22.1166 60.4042 22.2046 60.4095 22.1951L63.032 23.652L65.6545 25.1089C66.1115 24.2863 66.4132 23.243 66.6428 22.2225L63.716 21.564ZM63.032 23.652L60.4095 22.1951C60.3592 22.2857 60.3193 22.3551 60.2891 22.4061C60.2573 22.4598 60.2446 22.4788 60.2478 22.4739C60.25 22.4707 60.2624 22.4521 60.2838 22.4232C60.3029 22.3975 60.3466 22.3397 60.4118 22.2664C60.4635 22.2083 60.6044 22.0535 60.8225 21.8899C60.935 21.8055 61.1231 21.6769 61.379 21.5617C61.6274 21.4499 62.0521 21.3 62.6 21.3V24.3V27.3C63.6161 27.3 64.2863 26.792 64.4225 26.6899C64.6586 26.5128 64.8205 26.3377 64.8962 26.2526C65.0575 26.0711 65.1775 25.8961 65.2402 25.8021C65.3807 25.5913 65.5235 25.3447 65.6545 25.1089L63.032 23.652ZM62.6 24.3V21.3C62.7972 21.3 62.9519 21.32 63.0308 21.3317C63.1195 21.345 63.1902 21.3598 63.2343 21.3697C63.3205 21.3892 63.3824 21.4077 63.4037 21.4142C63.4488 21.4279 63.4642 21.4345 63.4301 21.422C63.3689 21.3994 63.2506 21.3531 63.0583 21.274L61.916 24.048L60.7738 26.822C60.9895 26.9109 61.1891 26.9906 61.3559 27.052C61.4358 27.0815 61.5427 27.1196 61.6568 27.1543C61.7126 27.1713 61.8033 27.1977 61.9128 27.2224C61.9729 27.236 62.248 27.3 62.6 27.3V24.3ZM61.916 24.048L63.2576 21.3647C62.6052 21.0385 61.791 20.76 60.872 20.76V23.76V26.76C60.7201 26.76 60.6153 26.7367 60.5692 26.724C60.5243 26.7116 60.5248 26.7065 60.5744 26.7313L61.916 24.048ZM60.872 23.76V20.76C59.4745 20.76 58.1343 21.3957 57.3115 22.6948C56.6353 23.7625 56.504 24.9801 56.504 25.92H59.504H62.504C62.504 25.7091 62.5215 25.6102 62.5248 25.5947C62.5287 25.5764 62.5049 25.7087 62.3805 25.9052C62.2433 26.1218 62.0106 26.3709 61.6707 26.5498C61.3396 26.724 61.0434 26.76 60.872 26.76V23.76ZM59.504 25.92H56.504V35.964H59.504H62.504V25.92H59.504ZM75.9014 36.216L75.8355 39.2153L75.8685 39.216H75.9014V36.216ZM72.6254 23.976H75.6254V20.976H72.6254V23.976ZM70.7174 23.292L67.9817 24.5231L68.0196 24.6074L68.0627 24.6892L70.7174 23.292ZM75.3974 18.648L73.3505 20.8412L73.3703 20.8597L73.3905 20.8779L75.3974 18.648ZM76.4774 20.88H73.4774L79.1476 22.2476L76.4774 20.88ZM78.4934 18.54L80.19 21.0142L80.1973 21.0092L80.2046 21.0041L78.4934 18.54ZM83.6414 18.72L86.4504 17.6666L86.439 17.6361L86.4269 17.6058L83.6414 18.72ZM83.3894 21.564L80.479 20.8364L80.4704 20.8708L80.4626 20.9055L83.3894 21.564ZM81.5894 24.048L80.2478 26.7313L80.3458 26.7803L80.4472 26.822L81.5894 24.048ZM79.1774 35.964H76.1774C76.1774 35.091 76.5513 34.4293 76.8976 34.0297C77.2136 33.6651 77.542 33.4689 77.704 33.3816C78.0229 33.2099 78.2793 33.1554 78.2981 33.1511C78.3874 33.1305 78.3645 33.1437 78.1283 33.1618C77.7013 33.1947 76.9762 33.216 75.9014 33.216V36.216V39.216C77.0107 39.216 77.9235 39.1953 78.5885 39.1442C78.8984 39.1203 79.285 39.081 79.6473 38.9974C79.8025 38.9616 80.1614 38.873 80.5485 38.6645C80.7318 38.5658 82.1774 37.7829 82.1774 35.964H79.1774ZM75.9014 36.216L75.9674 33.2167C74.8902 33.1931 74.1514 33.1586 73.7072 33.1195C73.4654 33.0983 73.4164 33.0842 73.4742 33.0969C73.4773 33.0976 73.6981 33.1414 73.9825 33.2789C74.1199 33.3453 74.4438 33.5139 74.7711 33.8447C75.1195 34.197 75.6254 34.9036 75.6254 35.928H72.6254H69.6254C69.6254 36.9704 70.1399 37.6946 70.5054 38.0641C70.8497 38.4123 71.1992 38.5977 71.3707 38.6806C71.7234 38.8511 72.0465 38.9264 72.1862 38.9571C72.517 39.0298 72.8775 39.0697 73.1817 39.0965C73.8294 39.1534 74.7287 39.1909 75.8355 39.2153L75.9014 36.216ZM72.6254 35.928H75.6254V23.976H72.6254H69.6254V35.928H72.6254ZM72.6254 23.976V20.976H71.6534V23.976V26.976H72.6254V23.976ZM71.6534 23.976V20.976C72.1021 20.976 72.5472 21.1239 72.9015 21.3828C73.2165 21.613 73.347 21.847 73.3722 21.8948L70.7174 23.292L68.0627 24.6892C68.6164 25.7414 69.7752 26.976 71.6534 26.976V23.976ZM70.7174 23.292L73.4532 22.0609C73.4579 22.0713 73.3934 21.9298 73.3934 21.528H70.3934H67.3934C67.3934 22.5182 67.545 23.5527 67.9817 24.5231L70.7174 23.292ZM70.3934 21.528H73.3934C73.3934 21.0192 73.4319 20.6548 73.4806 20.4084C73.5302 20.1573 73.5771 20.0962 73.5503 20.1414C73.5121 20.206 73.3921 20.3673 73.1602 20.4977C72.9311 20.6266 72.7444 20.64 72.6974 20.64V17.64V14.64C70.8954 14.64 69.3257 15.5012 68.3886 17.0826C67.5974 18.4177 67.3934 20.0338 67.3934 21.528H70.3934ZM72.6974 17.64V20.64C73.0974 20.64 73.2417 20.7397 73.3505 20.8412L75.3974 18.648L77.4444 16.4548C76.1131 15.2123 74.4575 14.64 72.6974 14.64V17.64ZM75.3974 18.648L73.3905 20.8779C73.451 20.9323 73.4841 20.9709 73.4997 20.991C73.5147 21.0104 73.5139 21.0131 73.507 20.9987C73.4997 20.9836 73.4908 20.9605 73.4845 20.9329C73.4783 20.9054 73.4774 20.886 73.4774 20.88H76.4774H79.4774C79.4774 19.0558 78.6497 17.539 77.4043 16.4181L75.3974 18.648ZM76.4774 20.88L79.1476 22.2476C79.4441 21.6688 79.7961 21.2843 80.19 21.0142L78.4934 18.54L76.7969 16.0658C75.5108 16.9477 74.5188 18.1232 73.8073 19.5124L76.4774 20.88ZM78.4934 18.54L80.2046 21.0041C80.6611 20.6871 80.9513 20.64 81.1214 20.64V17.64V14.64C79.5156 14.64 78.0538 15.1929 76.7822 16.0759L78.4934 18.54ZM81.1214 17.64V20.64C81.3445 20.64 81.4944 20.6547 81.5842 20.6692C81.6757 20.684 81.6749 20.6937 81.6137 20.6674C81.5483 20.6394 81.4062 20.5667 81.2472 20.4144C81.0811 20.2554 80.9442 20.0546 80.856 19.8342L83.6414 18.72L86.4269 17.6058C85.3918 15.0182 82.6979 14.64 81.1214 14.64V17.64ZM83.6414 18.72L80.8325 19.7734C80.7938 19.6702 80.7728 19.5891 80.7619 19.5405C80.7507 19.4909 80.7466 19.4598 80.7456 19.4521C80.7442 19.4406 80.7494 19.4793 80.7494 19.584H83.7494H86.7494C86.7494 19.0978 86.7153 18.373 86.4504 17.6666L83.6414 18.72ZM83.7494 19.584H80.7494C80.7494 19.4913 80.7581 19.5358 80.7078 19.8123C80.6635 20.056 80.5899 20.393 80.479 20.8364L83.3894 21.564L86.2999 22.2916C86.5303 21.3701 86.7494 20.3665 86.7494 19.584H83.7494ZM83.3894 21.564L80.4626 20.9055C80.3689 21.3218 80.2818 21.6393 80.2055 21.8721C80.1254 22.1166 80.0777 22.2046 80.083 22.1951L82.7054 23.652L85.3279 25.1089C85.7849 24.2863 86.0867 23.243 86.3163 22.2225L83.3894 21.564ZM82.7054 23.652L80.083 22.1951C80.0326 22.2857 79.9928 22.3551 79.9626 22.4061C79.9307 22.4598 79.918 22.4788 79.9213 22.4739C79.9234 22.4707 79.9358 22.4521 79.9573 22.4232C79.9763 22.3975 80.0201 22.3397 80.0852 22.2664C80.1369 22.2083 80.2778 22.0535 80.4959 21.8899C80.6084 21.8055 80.7966 21.6769 81.0525 21.5617C81.3008 21.4499 81.7255 21.3 82.2734 21.3V24.3V27.3C83.2895 27.3 83.9598 26.792 84.0959 26.6899C84.3321 26.5128 84.494 26.3377 84.5697 26.2526C84.731 26.0711 84.8509 25.8961 84.9136 25.8021C85.0541 25.5913 85.1969 25.3447 85.3279 25.1089L82.7054 23.652ZM82.2734 24.3V21.3C82.4707 21.3 82.6253 21.32 82.7043 21.3317C82.793 21.345 82.8636 21.3598 82.9078 21.3697C82.994 21.3892 83.0558 21.4077 83.0772 21.4142C83.1222 21.4279 83.1376 21.4345 83.1036 21.422C83.0424 21.3994 82.924 21.3531 82.7317 21.274L81.5894 24.048L80.4472 26.822C80.6629 26.9109 80.8625 26.9906 81.0293 27.052C81.1093 27.0815 81.2161 27.1196 81.3302 27.1543C81.386 27.1713 81.4768 27.1977 81.5862 27.2224C81.6464 27.236 81.9215 27.3 82.2734 27.3V24.3ZM81.5894 24.048L82.9311 21.3647C82.2786 21.0385 81.4645 20.76 80.5454 20.76V23.76V26.76C80.3935 26.76 80.2888 26.7367 80.2427 26.724C80.1978 26.7116 80.1983 26.7065 80.2478 26.7313L81.5894 24.048ZM80.5454 23.76V20.76C79.148 20.76 77.8078 21.3957 76.985 22.6948C76.3088 23.7625 76.1774 24.9801 76.1774 25.92H79.1774H82.1774C82.1774 25.7091 82.195 25.6102 82.1982 25.5947C82.2021 25.5764 82.1783 25.7087 82.0539 25.9052C81.9167 26.1218 81.6841 26.3709 81.3442 26.5498C81.0131 26.724 80.7168 26.76 80.5454 26.76V23.76ZM79.1774 25.92H76.1774V35.964H79.1774H82.1774V25.92H79.1774ZM89.7069 18.18H86.7069V18.7221L86.8966 19.23L89.7069 18.18ZM96.4029 18.144L93.5294 19.0061L93.5334 19.0194L96.4029 18.144ZM98.9949 26.64L96.1254 27.5154L99.0682 37.1611L101.876 27.4753L98.9949 26.64ZM101.479 18.072L98.7956 16.7304L98.6735 16.9745L98.5975 17.2366L101.479 18.072ZM108.283 18.252L105.559 16.9948L105.499 17.1238L105.452 17.2577L108.283 18.252ZM99.8229 42.336L96.9924 41.3417L96.9064 41.5867L96.8637 41.8428L99.8229 42.336ZM94.2789 42.408L94.5388 39.4193L94.5065 39.4165L94.4741 39.4144L94.2789 42.408ZM92.6949 42.12L89.9233 40.9718L89.9163 40.9888L89.9094 41.0058L92.6949 42.12ZM95.8269 34.56L98.5984 35.7082L99.0506 34.6167L98.6371 33.51L95.8269 34.56ZM89.7069 18.18H92.7069C92.7069 19.3136 92.0832 20.0496 91.6959 20.3773C91.3425 20.6764 91.0183 20.7966 90.9344 20.827C90.7438 20.8962 90.6763 20.8867 90.8859 20.8613C91.2464 20.8177 91.9184 20.784 92.9829 20.784V17.784V14.784C91.8633 14.784 90.8973 14.8163 90.1659 14.9047C89.8295 14.9453 89.3525 15.0183 88.8889 15.1865C88.6685 15.2664 88.2419 15.4402 87.8202 15.797C87.3646 16.1825 86.7069 16.9804 86.7069 18.18H89.7069ZM92.9829 17.784V20.784C94.059 20.784 94.7698 20.8144 95.1798 20.8575C95.4037 20.8811 95.407 20.8958 95.2944 20.8623C95.2452 20.8477 95.022 20.7809 94.746 20.6099C94.5146 20.4666 93.8248 19.9909 93.5294 19.006L96.4029 18.144L99.2764 17.282C98.9629 16.2371 98.2218 15.7051 97.9057 15.5093C97.5448 15.2858 97.2035 15.1703 97.0028 15.1107C96.5872 14.9872 96.1541 14.9269 95.8079 14.8905C95.0779 14.8136 94.1147 14.784 92.9829 14.784V17.784ZM96.4029 18.144L93.5334 19.0194L96.1254 27.5154L98.9949 26.64L101.864 25.7646L99.2723 17.2686L96.4029 18.144ZM98.9949 26.64L101.876 27.4753L104.36 18.9073L101.479 18.072L98.5975 17.2366L96.1135 25.8046L98.9949 26.64ZM101.479 18.072L104.162 19.4136C103.854 20.0297 103.414 20.3677 103.182 20.5185C102.938 20.6773 102.733 20.7537 102.645 20.7838C102.473 20.8429 102.39 20.8445 102.493 20.8313C102.672 20.8082 103.055 20.784 103.711 20.784V17.784V14.784C102.975 14.784 102.289 14.8078 101.725 14.8807C101.455 14.9155 101.082 14.9771 100.699 15.1082C100.506 15.1743 100.217 15.2897 99.9082 15.4905C99.6122 15.6833 99.1276 16.0663 98.7956 16.7304L101.479 18.072ZM103.711 17.784V20.784C105.289 20.784 106.341 20.8238 106.942 20.8854C107.289 20.9208 107.281 20.9448 107.115 20.8883C107.086 20.8785 106.605 20.7309 106.137 20.2636C105.865 19.9915 105.511 19.5223 105.361 18.8413C105.203 18.1279 105.336 17.4788 105.559 16.9948L108.283 18.252L111.007 19.5092C111.248 18.9862 111.385 18.2993 111.22 17.5493C111.062 16.8317 110.686 16.3272 110.38 16.021C109.844 15.4854 109.243 15.2745 109.042 15.2062C108.53 15.0327 107.969 14.9592 107.553 14.9166C106.631 14.8222 105.324 14.784 103.711 14.784V17.784ZM108.283 18.252L105.452 17.2577L96.9924 41.3417L99.8229 42.336L102.653 43.3303L111.113 19.2463L108.283 18.252ZM99.8229 42.336L96.8637 41.8428C97.0505 40.722 97.781 40.1235 98.0828 39.9157C98.4084 39.6915 98.6926 39.5981 98.7822 39.5698C98.9812 39.5069 99.0889 39.5043 98.9845 39.5157C98.8212 39.5335 98.4638 39.552 97.8429 39.552V42.552V45.552C98.518 45.552 99.1386 45.5345 99.6352 45.4803C99.8609 45.4557 100.219 45.4081 100.589 45.2912C100.764 45.2359 101.114 45.1133 101.485 44.8576C101.833 44.6183 102.589 43.986 102.782 42.8292L99.8229 42.336ZM97.8429 42.552V39.552C96.6453 39.552 95.5448 39.5068 94.5388 39.4193L94.2789 42.408L94.019 45.3967C95.2209 45.5012 96.4965 45.552 97.8429 45.552V42.552ZM94.2789 42.408L94.4741 39.4144C93.9432 39.3797 93.6777 39.3461 93.5915 39.3304C93.5053 39.3147 93.709 39.3397 93.998 39.4697C94.1101 39.5202 94.5774 39.7313 94.9986 40.2315C95.2362 40.5137 95.5105 40.9498 95.6314 41.5394C95.7576 42.1545 95.6766 42.7434 95.4803 43.2342L92.6949 42.12L89.9094 41.0058C89.4209 42.2271 89.8164 43.3924 90.4091 44.0963C90.8543 44.625 91.3636 44.8638 91.5358 44.9413C91.9447 45.1253 92.3405 45.2013 92.5182 45.2336C92.96 45.3139 93.5105 45.3643 94.0836 45.4016L94.2789 42.408ZM92.6949 42.12L95.4664 43.2682L98.5984 35.7082L95.8269 34.56L93.0553 33.4118L89.9233 40.9718L92.6949 42.12ZM95.8269 34.56L98.6371 33.51L92.5171 17.13L89.7069 18.18L86.8966 19.23L93.0166 35.61L95.8269 34.56Z" fill="#4A90E2" mask="url(#path-1-outside-1_53_50)"/>
<path d="M3.192 17.244C2.716 17.244 2.38 16.6 2.184 15.312C2.1 14.78 2.058 14.192 2.058 13.548C2.058 12.904 2.128 12.232 2.268 11.532C2.52 10.244 2.94 9.6 3.528 9.6H19.068C20.776 9.6 21.882 11.154 22.386 14.262C22.498 14.934 22.554 15.424 22.554 15.732L12.726 30.642H20.412C20.44 30.642 20.468 30.642 20.496 30.642C21.112 30.642 21.546 31.314 21.798 32.658C21.91 33.302 21.966 33.974 21.966 34.674C21.966 35.374 21.882 36.116 21.714 36.9C21.406 38.3 20.93 39 20.286 39H3.948C3.696 39 3.234 38.16 2.562 36.48C1.918 34.772 1.596 33.708 1.596 33.288C1.596 32.868 1.638 32.602 1.722 32.49L11.55 17.244H3.192ZM28.622 23.754C27.838 22.354 27.446 21.22 27.446 20.352C27.446 19.456 27.684 18.882 28.16 18.63C29.756 17.93 31.94 17.58 34.712 17.58C37.512 17.58 39.486 18.238 40.634 19.554C41.782 20.842 42.356 22.76 42.356 25.308V31.944H43.784C44.26 31.944 44.624 32.224 44.876 32.784C45.156 33.344 45.296 34.114 45.296 35.094C45.296 36.074 45.044 37.04 44.54 37.992C44.064 38.944 43.406 39.42 42.566 39.42C41.054 39.42 39.836 39.014 38.912 38.202C38.492 37.866 38.17 37.46 37.946 36.984C36.658 38.608 34.656 39.42 31.94 39.42C29.896 39.42 28.174 38.692 26.774 37.236C25.374 35.78 24.674 34.058 24.674 32.07C24.674 27.506 27.404 25.224 32.864 25.224H35.174V24.804C35.174 24.076 35.048 23.614 34.796 23.418C34.572 23.194 34.026 23.082 33.158 23.082C32.094 23.082 30.582 23.306 28.622 23.754ZM31.982 31.482C31.982 32.098 32.15 32.574 32.486 32.91C32.822 33.218 33.242 33.372 33.746 33.372C34.278 33.372 34.754 33.162 35.174 32.742V29.508H33.998C32.654 29.508 31.982 30.166 31.982 31.482Z" fill="#448DF9"/>
</svg>
